<svg xmlns="http://www.w3.org/2000/svg" viewBox="0 0 37.21 41.85"><defs><style>.cls-1{fill:#46c6ad;}</style></defs><title>资源 148</title><g id="图层_2" data-name="图层 2"><g id="图层_1-2" data-name="图层 1"><path class="cls-1" d="M32.57,4.64V35.77L21.63,30.43a6.89,6.89,0,0,0-6,0L4.64,35.77V4.64ZM23.28,16H14a2.2,2.2,0,0,1-2.33-2.32A2.2,2.2,0,0,1,14,11.39h9.31a2.2,2.2,0,0,1,2.33,2.32A2.2,2.2,0,0,1,23.28,16Zm0,9.07H14a2.2,2.2,0,0,1-2.33-2.32A2.2,2.2,0,0,1,14,20.46h9.31a2.2,2.2,0,0,1,2.33,2.32,2.2,2.2,0,0,1-2.33,2.32ZM32.56,0H4.65A4.66,4.66,0,0,0,0,4.65V39.52a2.33,2.33,0,0,0,2.33,2.33,1.42,1.42,0,0,0,.93-.23l14.18-7a1.41,1.41,0,0,1,.93-.23,1.41,1.41,0,0,1,.93.23l14.19,7a4.09,4.09,0,0,0,1.39.23,2.33,2.33,0,0,0,2.33-2.33V4.65A4.67,4.67,0,0,0,32.56,0Z"/></g></g></svg>
